<svg xmlns="http://www.w3.org/2000/svg" width="64" height="64" viewBox="0 0 64 64" fill="none">
  <rect width="64" height="64" rx="12" fill="#4F46E5"/>
  <path d="M32 12C20.9543 12 12 20.9543 12 32C12 43.0457 20.9543 52 32 52C43.0457 52 52 43.0457 52 32C52 20.9543 43.0457 12 32 12ZM32 18C34.2091 18 36 19.7909 36 22C36 24.2091 34.2091 26 32 26C29.7909 26 28 24.2091 28 22C28 19.7909 29.7909 18 32 18ZM24 42V40C24 36.6863 26.6863 34 30 34H34C37.3137 34 40 36.6863 40 40V42C37.2091 44.7909 34.7909 46 32 46C29.2091 46 26.7909 44.7909 24 42Z" fill="white"/>
  <path d="M32 30C29.7909 30 28 31.7909 28 34H36C36 31.7909 34.2091 30 32 30Z" fill="#10B981"/>
  <path d="M32 22.5C31.1716 22.5 30.5 23.1716 30.5 24C30.5 24.8284 31.1716 25.5 32 25.5C32.8284 25.5 33.5 24.8284 33.5 24C33.5 23.1716 32.8284 22.5 32 22.5Z" fill="#10B981"/>
</svg> 